<svg width="24" height="24" viewBox="0 0 24 24" fill="none" xmlns="http://www.w3.org/2000/svg">
<path d="M12 5.5C10.7144 5.5 9.45772 5.88122 8.3888 6.59545C7.31988 7.30968 6.48676 8.32484 5.99479 9.51256C5.50282 10.7003 5.37409 12.0072 5.6249 13.2681C5.8757 14.529 6.49477 15.6872 7.40381 16.5962C8.31285 17.5052 9.47104 18.1243 10.7319 18.3751C11.9928 18.6259 13.2997 18.4972 14.4874 18.0052C15.6752 17.5132 16.6903 16.6801 17.4046 15.6112C18.1188 14.5423 18.5 13.2856 18.5 12C18.4967 10.2771 17.8108 8.62573 16.5925 7.40746C15.3743 6.18918 13.7229 5.5033 12 5.5ZM14.3563 13.6438C14.4501 13.7385 14.5028 13.8666 14.5028 14C14.5028 14.1334 14.4501 14.2615 14.3563 14.3562C14.2607 14.4487 14.1329 14.5003 14 14.5003C13.8671 14.5003 13.7393 14.4487 13.6438 14.3562L12 12.7063L10.3563 14.3562C10.2607 14.4487 10.1329 14.5003 10 14.5003C9.86706 14.5003 9.73932 14.4487 9.64375 14.3562C9.54986 14.2615 9.49719 14.1334 9.49719 14C9.49719 13.8666 9.54986 13.7385 9.64375 13.6438L11.2938 12L9.64375 10.3562C9.56402 10.2591 9.52328 10.1358 9.52944 10.0102C9.53561 9.88472 9.58824 9.76597 9.67711 9.67711C9.76598 9.58824 9.88472 9.5356 10.0102 9.52944C10.1358 9.52327 10.2591 9.56402 10.3563 9.64375L12 11.2937L13.6438 9.64375C13.7409 9.56402 13.8642 9.52327 13.9898 9.52944C14.1153 9.5356 14.234 9.58824 14.3229 9.67711C14.4118 9.76597 14.4644 9.88472 14.4706 10.0102C14.4767 10.1358 14.436 10.2591 14.3563 10.3562L12.7063 12L14.3563 13.6438Z" fill="black" fill-opacity="0.2"/>
</svg>
